<svg width="35" height="39" viewBox="0 0 35 39" fill="none" xmlns="http://www.w3.org/2000/svg">
<path fill-rule="evenodd" clip-rule="evenodd" d="M21.5959 20.2317C20.2014 21.0183 19.3421 22.4722 19.3421 24.0462C19.3421 27.6521 19.3421 34.1756 19.3421 37.3989C19.3421 37.7925 19.5562 38.1559 19.9055 38.3513C20.2549 38.5495 20.6831 38.5495 21.0324 38.3513C23.8665 36.7521 29.5769 33.5316 32.7462 31.7424C34.1407 30.9552 35 29.5018 35 27.9301C35 24.3214 35 17.7989 35 14.5768C35 14.1831 34.7859 13.8198 34.4366 13.623C34.09 13.4265 33.659 13.4265 33.3097 13.623C30.4784 15.2217 24.768 18.4425 21.5959 20.2317Z" fill="#6CA7EF"/>
<path fill-rule="evenodd" clip-rule="evenodd" d="M6.87788e-09 27.9233C-1.93151e-06 29.4979 0.858658 30.9515 2.25252 31.7388C5.42452 33.5282 11.1365 36.7519 13.9687 38.3513C14.3178 38.5495 14.7457 38.5495 15.0948 38.3513C15.4439 38.1559 15.6579 37.7925 15.6579 37.3988C15.6579 34.1779 15.6579 27.659 15.6579 24.0527C15.6579 22.4786 14.7992 21.0245 13.4057 20.2377C10.2339 18.4469 4.52252 15.2227 1.6892 13.623C1.34067 13.4264 0.911332 13.4264 0.563079 13.623C0.214544 13.8198 1.69206e-05 14.1832 1.64364e-05 14.5766C1.24708e-05 17.7981 4.44618e-06 24.317 6.87788e-09 27.9233Z" fill="#A5CBF9"/>
<path fill-rule="evenodd" clip-rule="evenodd" d="M3.33449 8.27355C2.98114 8.48608 2.76318 8.87847 2.76318 9.30324C2.76318 9.72801 2.98113 10.1207 3.33448 10.3329C6.2087 12.0599 12.0014 15.5396 15.2178 17.4726C16.6318 18.3221 18.3743 18.3221 19.7882 17.4726C23.0047 15.5402 28.7948 12.0621 31.6656 10.3359C32.0198 10.1237 32.2369 9.731 32.2369 9.30623C32.2369 8.88145 32.0198 8.48879 31.6656 8.27655C28.7919 6.54982 23.0018 3.06989 19.7825 1.13716C18.3686 0.287615 16.6261 0.287614 15.2121 1.13716C11.9957 3.06929 6.20784 6.54741 3.33449 8.27355Z" fill="#C2DFFF"/>
</svg>
